<svg xmlns="http://www.w3.org/2000/svg" width="124" height="36" viewBox="0 0 124 36" fill="none"><path fill-rule="evenodd" clip-rule="evenodd" d="M13.8479 0.000176083C13.9264 -0.00218802 14.0038 0.0193002 14.0698 0.0618046L30.7094 9.76209C30.8743 9.86229 31.0104 10.0035 31.1043 10.172C31.1983 10.3406 31.247 10.5306 31.2456 10.7235V30.161C31.2454 30.2411 31.2241 30.3198 31.1839 30.3891C31.1545 30.4406 31.1152 30.4858 31.0683 30.5221C31.0214 30.5584 30.9677 30.585 30.9104 30.6005C30.8531 30.616 30.7934 30.6199 30.7345 30.6122C30.6757 30.6045 30.619 30.5852 30.5677 30.5555L27.1904 28.5834C27.0652 28.5096 26.9616 28.4041 26.8902 28.2775C26.8188 28.1509 26.782 28.0077 26.7837 27.8623V12.6956L13.8109 5.09683C13.6835 5.02398 13.5772 4.91916 13.5027 4.79272C13.4281 4.66627 13.3878 4.52256 13.3857 4.37578V0.462388C13.3873 0.340298 13.4365 0.223658 13.5228 0.13732C13.6092 0.050982 13.7258 0.00177223 13.8479 0.000176083ZM17.3176 22.8889C17.2821 22.8165 17.2236 22.758 17.1512 22.7225L13.3858 20.5409V16.1345C13.3866 16.0746 13.3756 16.0151 13.3534 15.9595C13.3312 15.9038 13.2983 15.8531 13.2566 15.8102C13.2148 15.7672 13.165 15.733 13.1099 15.7093C13.0549 15.6856 12.9958 15.673 12.9359 15.6722C12.8539 15.673 12.7734 15.6942 12.7017 15.7339L9.49085 17.5827C9.32319 17.6824 9.18442 17.824 9.08823 17.9937C8.99204 18.1634 8.94176 18.3552 8.94236 18.5503V22.4329C8.94035 22.6266 8.98942 22.8175 9.08463 22.9863C9.17983 23.155 9.31781 23.2958 9.48469 23.3943L12.8434 25.354C13.0096 25.4522 13.199 25.5039 13.3919 25.5039C13.5849 25.5039 13.7743 25.4522 13.9404 25.354L17.1512 23.5052C17.2541 23.4447 17.3291 23.3462 17.3602 23.231C17.3913 23.1158 17.3761 22.993 17.3176 22.8889ZM18.2543 23.3573C18.1283 23.2838 18.0239 23.1785 17.9514 23.052C17.8789 22.9254 17.841 22.782 17.8414 22.6362V17.934L13.8048 15.5736C13.6781 15.5005 13.5727 15.3954 13.4992 15.2689C13.4257 15.1424 13.3865 14.9989 13.3857 14.8526V10.9084C13.3873 10.7863 13.4365 10.6696 13.5228 10.5833C13.6092 10.497 13.7258 10.4477 13.8479 10.4461C13.9278 10.4477 14.0061 10.4688 14.0759 10.5078L21.7671 15.0066C21.9331 15.1046 22.0705 15.2444 22.1657 15.412C22.2608 15.5796 22.3104 15.7692 22.3095 15.9619V24.9349C22.3093 25.0151 22.2881 25.0937 22.2478 25.163C22.2184 25.2145 22.1791 25.2597 22.1322 25.296C22.0853 25.3323 22.0316 25.3589 21.9743 25.3744C21.917 25.3899 21.8573 25.3939 21.7984 25.3861C21.7396 25.3784 21.6829 25.3591 21.6316 25.3294L18.2543 23.3573ZM12.9358 5.2139C12.8563 5.21246 12.7778 5.23157 12.7078 5.26937L0.542388 12.3874C0.378146 12.4858 0.241984 12.6248 0.147002 12.791C0.0520204 12.9572 0.00141617 13.1451 5.90327e-05 13.3365V27.702C-0.00194534 27.8958 0.0471245 28.0867 0.14233 28.2555C0.237535 28.4242 0.375516 28.5649 0.542388 28.6634L12.8372 35.8493C13.0043 35.948 13.1948 36 13.3888 36C13.5828 36 13.7733 35.948 13.9404 35.8493L26.075 28.7066C26.1755 28.6439 26.2485 28.5455 26.2794 28.4312C26.3103 28.3168 26.2967 28.195 26.2414 28.0903C26.2025 28.0188 26.145 27.9592 26.075 27.9177L22.6977 25.9456C22.5763 25.8776 22.4394 25.8419 22.3002 25.8419C22.161 25.8419 22.0242 25.8776 21.9027 25.9456L13.3857 30.9437L4.46811 25.7299V15.3086L12.979 10.3352C13.1033 10.262 13.2063 10.1574 13.2777 10.032C13.349 9.90657 13.3863 9.76463 13.3857 9.62032V5.67611C13.3865 5.61622 13.3755 5.55676 13.3534 5.50111C13.3312 5.44547 13.2983 5.39474 13.2565 5.35182C13.2147 5.3089 13.1649 5.27463 13.1099 5.25096C13.0549 5.2273 12.9957 5.2147 12.9358 5.2139Z" fill="#E00049"></path><path fill-rule="evenodd" clip-rule="evenodd" d="M86.4276 20.5285C86.4276 26.525 86.52 27.2892 86.8343 28.2382C87.5246 30.3644 89.281 31.6031 91.8817 31.6031C94.4824 31.6031 96.208 30.3644 96.8982 28.2382C97.2125 27.3076 97.305 26.525 97.305 20.5285C97.305 14.5321 97.2125 13.7741 96.8982 12.8188C96.1957 10.6927 94.5132 9.4601 91.8817 9.4601C89.2501 9.4601 87.5246 10.6927 86.8343 12.8188C86.52 13.7494 86.4276 14.5321 86.4276 20.5285ZM93.8908 20.5409C93.8908 26.4633 93.8538 26.7037 93.6689 27.32C93.5203 27.6756 93.2699 27.9793 92.9492 28.1929C92.6284 28.4065 92.2517 28.5205 91.8663 28.5205C91.4809 28.5205 91.1041 28.4065 90.7834 28.1929C90.4626 27.9793 90.2122 27.6756 90.0636 27.32C89.8726 26.7037 89.8418 26.4572 89.8418 20.5409C89.8418 14.6245 89.8726 14.378 90.0636 13.7617C90.2122 13.4062 90.4626 13.1024 90.7834 12.8888C91.1041 12.6752 91.4809 12.5612 91.8663 12.5612C92.2517 12.5612 92.6284 12.6752 92.9492 12.8888C93.2699 13.1024 93.5203 13.4062 93.6689 13.7617C93.8538 14.378 93.8908 14.6184 93.8908 20.5409ZM76.98 31.3135C76.938 31.3162 76.8959 31.3099 76.8565 31.2951C76.8172 31.2802 76.7814 31.2572 76.7517 31.2274C76.7219 31.1977 76.6989 31.1619 76.684 31.1226C76.6692 31.0832 76.6629 31.0411 76.6657 30.9992V13.0037C76.6686 12.9779 76.6657 12.9518 76.6571 12.9272C76.6486 12.9027 76.6346 12.8805 76.6162 12.8621C76.5979 12.8437 76.5756 12.8297 76.5511 12.8212C76.5265 12.8126 76.5004 12.8097 76.4746 12.8127H73.233C73.191 12.8154 73.1489 12.8091 73.1095 12.7943C73.0702 12.7794 73.0344 12.7564 73.0047 12.7266C72.9749 12.6969 72.9519 12.6611 72.937 12.6218C72.9222 12.5824 72.9159 12.5403 72.9187 12.4984V10.0332C72.9169 9.99149 72.9238 9.94984 72.939 9.91092C72.9542 9.872 72.9773 9.83665 73.0068 9.80711C73.0364 9.77757 73.0717 9.75448 73.1107 9.7393C73.1496 9.72412 73.1912 9.71718 73.233 9.71893H83.4879C83.5296 9.71718 83.5713 9.72412 83.6102 9.7393C83.6491 9.75448 83.6845 9.77757 83.714 9.80711C83.7436 9.83665 83.7667 9.872 83.7818 9.91092C83.797 9.94984 83.8039 9.99149 83.8022 10.0332V12.4984C83.8049 12.5403 83.7986 12.5824 83.7838 12.6218C83.769 12.6611 83.7459 12.6969 83.7162 12.7266C83.6864 12.7564 83.6507 12.7794 83.6113 12.7943C83.572 12.8091 83.5299 12.8154 83.4879 12.8127H80.2278C80.2002 12.8052 80.1712 12.8048 80.1434 12.8113C80.1156 12.8178 80.0899 12.8312 80.0685 12.8501C80.0471 12.869 80.0308 12.893 80.0209 12.9198C80.0111 12.9466 80.008 12.9754 80.0121 13.0037V30.9992C80.0148 31.0411 80.0085 31.0832 79.9937 31.1226C79.9788 31.1619 79.9558 31.1977 79.926 31.2274C79.8963 31.2572 79.8605 31.2802 79.8212 31.2951C79.7818 31.3099 79.7397 31.3162 79.6978 31.3135H76.98ZM46.5498 9.93558C46.5346 9.9745 46.5277 10.0161 46.5294 10.0579V31.0608C46.5267 31.1028 46.533 31.1448 46.5478 31.1842C46.5626 31.2236 46.5857 31.2593 46.6155 31.2891C46.6452 31.3188 46.6809 31.3419 46.7203 31.3567C46.7597 31.3715 46.8018 31.3778 46.8437 31.3751H55.6196C55.6611 31.3769 55.7025 31.37 55.7411 31.3547C55.7797 31.3395 55.8147 31.3163 55.8437 31.2867C55.8728 31.257 55.8953 31.2216 55.9098 31.1827C55.9243 31.1437 55.9304 31.1022 55.9277 31.0608V28.5957C55.9304 28.5542 55.9243 28.5127 55.9098 28.4738C55.8953 28.4349 55.8728 28.3994 55.8437 28.3698C55.8147 28.3402 55.7797 28.317 55.7411 28.3017C55.7025 28.2865 55.6611 28.2795 55.6196 28.2814H50.0731C49.9498 28.2814 49.8882 28.2197 49.8882 28.0903V22.1863C49.8852 22.1613 49.8879 22.136 49.8962 22.1122C49.9044 22.0884 49.9179 22.0668 49.9357 22.049C49.9535 22.0312 49.9751 22.0177 49.9989 22.0094C50.0227 22.0012 50.0481 21.9985 50.0731 22.0014H54.8184C54.8605 22.0033 54.9024 21.9963 54.9415 21.9807C54.9806 21.9651 55.0159 21.9413 55.045 21.911C55.0742 21.8806 55.0966 21.8444 55.1106 21.8048C55.1247 21.7651 55.1301 21.7229 55.1266 21.681V19.2158C55.1301 19.1739 55.1247 19.1317 55.1106 19.0921C55.0966 19.0524 55.0742 19.0162 55.045 18.9859C55.0159 18.9555 54.9806 18.9318 54.9415 18.9162C54.9024 18.9006 54.8605 18.8935 54.8184 18.8954H50.0484C49.9251 18.8954 49.8635 18.8337 49.8635 18.7043V13.0284C49.8595 13.0029 49.8615 12.9769 49.8692 12.9523C49.877 12.9277 49.8904 12.9053 49.9083 12.8867C49.9262 12.8682 49.9482 12.8541 49.9725 12.8455C49.9968 12.8369 50.0228 12.8341 50.0484 12.8373H55.5949C55.6364 12.8391 55.6778 12.8322 55.7164 12.817C55.7551 12.8017 55.79 12.7785 55.8191 12.7489C55.8482 12.7192 55.8707 12.6838 55.8851 12.6449C55.8996 12.606 55.9057 12.5644 55.9031 12.523V10.0579C55.9057 10.0165 55.8996 9.97493 55.8851 9.93602C55.8707 9.8971 55.8482 9.86167 55.8191 9.83202C55.79 9.80238 55.7551 9.77918 55.7164 9.76394C55.6778 9.74871 55.6364 9.74177 55.5949 9.74358H46.8437C46.802 9.74184 46.7603 9.74878 46.7214 9.76396C46.6825 9.77914 46.6472 9.80223 46.6176 9.83177C46.5881 9.86131 46.565 9.89666 46.5498 9.93558ZM67.1009 30.9992C67.1625 31.1902 67.255 31.3135 67.446 31.3135H70.2254C70.4165 31.3135 70.5398 31.1902 70.4781 30.9992L66.2751 20.054L70.1022 10.0579C70.1638 9.87301 70.0406 9.74359 69.8495 9.74359H67.0947C66.9037 9.74359 66.8112 9.87301 66.7496 10.0579L64.6481 16.1837H64.5865L62.4849 10.0579C62.4233 9.87301 62.3309 9.74359 62.1398 9.74359H59.3789C59.194 9.74359 59.0646 9.87301 59.1324 10.0579L62.9225 20.054L58.7503 30.9992C58.6886 31.1902 58.8181 31.3135 59.003 31.3135H61.7639C61.9488 31.3135 62.0474 31.1902 62.109 30.9992L64.5741 24.1461H64.6358L67.1009 30.9992ZM101.262 10.0579C101.26 10.0161 101.267 9.9745 101.282 9.93558C101.297 9.89666 101.32 9.86131 101.35 9.83177C101.379 9.80223 101.415 9.77914 101.454 9.76396C101.492 9.74878 101.534 9.74184 101.576 9.74358H104.306C104.348 9.74086 104.39 9.74713 104.429 9.76197C104.469 9.7768 104.504 9.79986 104.534 9.82961C104.564 9.85935 104.587 9.8951 104.602 9.93446C104.617 9.97383 104.623 10.0159 104.62 10.0579V28.0472C104.62 28.1766 104.682 28.2382 104.805 28.2382H110.352C110.393 28.2365 110.435 28.2434 110.474 28.2586C110.513 28.2738 110.548 28.2969 110.578 28.3264C110.607 28.3559 110.63 28.3913 110.646 28.4302C110.661 28.4691 110.668 28.5108 110.666 28.5525V31.0176C110.669 31.0596 110.662 31.1017 110.648 31.1411C110.633 31.1804 110.61 31.2162 110.58 31.2459C110.55 31.2757 110.514 31.2987 110.475 31.3136C110.436 31.3284 110.394 31.3347 110.352 31.332H101.582C101.54 31.3347 101.498 31.3284 101.459 31.3136C101.419 31.2987 101.383 31.2757 101.354 31.2459C101.324 31.2162 101.301 31.1804 101.286 31.1411C101.271 31.1017 101.265 31.0596 101.268 31.0176L101.262 10.0579ZM113.926 9.93446C113.911 9.97383 113.905 10.0159 113.908 10.0579L113.877 31.0608C113.874 31.1028 113.88 31.1448 113.895 31.1842C113.91 31.2236 113.933 31.2593 113.963 31.2891C113.993 31.3188 114.028 31.3419 114.068 31.3567C114.107 31.3715 114.149 31.3778 114.191 31.3751H122.967C123.009 31.3778 123.051 31.3715 123.09 31.3567C123.13 31.3419 123.166 31.3188 123.195 31.2891C123.225 31.2593 123.248 31.2236 123.263 31.1842C123.278 31.1448 123.284 31.1028 123.281 31.0608V28.5957C123.284 28.5537 123.278 28.5116 123.263 28.4722C123.248 28.4329 123.225 28.3971 123.195 28.3674C123.166 28.3376 123.13 28.3146 123.09 28.2997C123.051 28.2849 123.009 28.2786 122.967 28.2814H117.42C117.394 28.2856 117.368 28.2836 117.343 28.2755C117.317 28.2674 117.295 28.2535 117.276 28.2348C117.257 28.2161 117.243 28.1933 117.235 28.1682C117.227 28.143 117.225 28.1164 117.229 28.0903V22.1863C117.229 22.0631 117.291 22.0014 117.42 22.0014H122.184C122.227 22.0032 122.269 21.9961 122.308 21.9806C122.347 21.9651 122.383 21.9414 122.413 21.9112C122.442 21.881 122.465 21.8449 122.48 21.8052C122.495 21.7655 122.501 21.7232 122.499 21.681V19.2158C122.501 19.1736 122.495 19.1313 122.48 19.0916C122.465 19.052 122.442 19.0158 122.413 18.9856C122.383 18.9554 122.347 18.9318 122.308 18.9162C122.269 18.9007 122.227 18.8936 122.184 18.8954H117.42C117.394 18.8996 117.368 18.8976 117.343 18.8895C117.317 18.8814 117.295 18.8675 117.276 18.8488C117.257 18.8302 117.243 18.8073 117.235 18.7822C117.227 18.7571 117.225 18.7304 117.229 18.7043V13.0284C117.226 13.0026 117.229 12.9764 117.238 12.9519C117.246 12.9274 117.26 12.9051 117.279 12.8867C117.297 12.8684 117.319 12.8544 117.344 12.8458C117.368 12.8373 117.395 12.8344 117.42 12.8373H122.967C123.009 12.84 123.051 12.8338 123.09 12.8189C123.13 12.8041 123.166 12.781 123.195 12.7513C123.225 12.7215 123.248 12.6858 123.263 12.6464C123.278 12.6071 123.284 12.565 123.281 12.523V10.0579C123.284 10.0159 123.278 9.97383 123.263 9.93446C123.248 9.8951 123.225 9.85935 123.195 9.82961C123.166 9.79986 123.13 9.7768 123.09 9.76197C123.051 9.74713 123.009 9.74086 122.967 9.74358H114.222C114.18 9.74086 114.138 9.74713 114.099 9.76197C114.059 9.7768 114.023 9.79986 113.994 9.82961C113.964 9.85935 113.941 9.8951 113.926 9.93446Z" fill="#010101"></path></svg>